:version 1.10
:name ASF
:units
  mass 1
  length 1
  angle deg
:documentation
  ASF file generated by Kaydara
:root
  axis xyz
  order  tx ty tz rx ry rz
  position 0 0 0
  orientation 0 0 0
:bonedata
  begin
    id 1
    name RightUpLegDummy
    direction -0.718183 -0.695806 0.00816078
    length 4.904
    axis 0 0 0 xyz
  end
  begin
    id 2
    name RightUpLeg
    direction 3.53989e-006 -0.995788 0.0916897
    length 17.4976
    axis -3.49089 -0.000906621 0.000287158 xyz
    dof rx ry rz
  end
  begin
    id 3
    name RightLeg
    direction 0.00371093 -0.995096 -0.0988418
    length 16.5821
    axis 3.68512 0.0193738 -0.131023 xyz
    dof rx ry rz
  end
  begin
    id 4
    name RightFoot
    direction 0.000791514 -0.46099 0.887405
    length 3.77069
    axis 4.84075e-005 -0.120479 -0.188788 xyz
    dof rx ry rz
  end
  begin
    id 5
    name RightToes
    direction 0.00124746 -0.014064 0.9999
    length 3.85082
    axis 0.00048216 0.542163 -0.142577 xyz
    dof rx ry rz
  end
  begin
    id 6
    name SpineDummy
    direction 8.36599e-015 1 5.97571e-016
    length 4.6813
    axis 0 0 0 xyz
  end
  begin
    id 7
    name Spine
    direction -4.63632e-008 0.999988 0.00495137
    length 10.1015
    axis -0.00138897 0.000121419 3.25764e-006 xyz
    dof rx ry rz
  end
  begin
    id 8
    name Spine1
    direction 0 0 0
    length 0
    axis -0.00138896 0.000121452 2.39764e-006 xyz
    dof rx ry rz
  end
  begin
    id 9
    name HEadDummy
    direction -3.91456e-008 0.999999 0.00127422
    length 3.43865
    axis -0.00138896 0.000121452 2.39764e-006 xyz
  end
  begin
    id 10
    name HEad
    direction -0.0222688 0.980941 0.193023
    length 5.12695
    axis -0.00138895 0.000121452 2.39764e-006 xyz
    dof rx ry rz
  end
  begin
    id 11
    name LeftShoulder1Dummy
    direction 0.998891 -0.0402508 -0.0244456
    length 3.5433
    axis -0.00138896 0.000121452 2.39764e-006 xyz
  end
  begin
    id 12
    name LeftShoulder1
    direction 0.99951 -0.000327743 0.0313091
    length 4.05031
    axis -0.00138896 0.000121452 2.39764e-006 xyz
    dof rx ry rz
  end
  begin
    id 13
    name LeftArm
    direction 0.998561 -0.00100054 -0.0536182
    length 10.3537
    axis -23.1894 0.134784 0.96751 xyz
    dof rx ry rz
  end
  begin
    id 14
    name LeftForeArm
    direction 0.998903 0.00866434 0.046012
    length 8.70632
    axis -9.91835 -0.06569 -0.177792 xyz
    dof rx ry rz
  end
  begin
    id 15
    name LeftHand
    direction 0.992938 -0.0411636 0.11126
    length 5.32135
    axis -0.00960227 -0.00340091 0.185174 xyz
    dof rx ry rz
  end
  begin
    id 16
    name RightShoulderDummy
    direction -0.998891 -0.0402509 -0.0244414
    length 3.5433
    axis -0.00138896 0.000121452 2.39764e-006 xyz
  end
  begin
    id 17
    name RightShoulder
    direction -0.99951 -0.000327827 0.0313133
    length 4.05031
    axis 0.215806 0.000203644 -0.00680151 xyz
    dof rx ry rz
  end
  begin
    id 18
    name RightArm
    direction -0.998573 -0.000999583 -0.053403
    length 10.3947
    axis -23.2009 -0.134239 -0.9641 xyz
    dof rx ry rz
  end
  begin
    id 19
    name RightForeArm
    direction -0.998898 0.00868026 0.0461306
    length 8.68355
    axis -9.92322 0.0658061 0.178869 xyz
    dof rx ry rz
  end
  begin
    id 20
    name RightHand
    direction -0.992843 -0.0414603 0.112003
    length 5.28593
    axis -0.00960634 0.00330671 -0.185226 xyz
    dof rx ry rz
  end
  begin
    id 21
    name LeftUpLegDummy
    direction 0.718183 -0.695806 0.00816078
    length 4.904
    axis 0 0 0 xyz
  end
  begin
    id 22
    name LeftUpLeg
    direction -6.8115e-006 -0.995793 0.0916336
    length 17.4976
    axis -3.48766 0.00143441 -0.000523914 xyz
    dof rx ry rz
  end
  begin
    id 23
    name LeftLeg
    direction -0.00601357 -0.995091 -0.0987824
    length 16.5821
    axis 3.68177 -0.00654038 -0.00028478 xyz
    dof rx ry rz
  end
  begin
    id 24
    name LeftFoot
    direction -0.00417578 -0.460984 0.887399
    length 3.77069
    axis 1.87232e-006 4.66002e-005 -8.1837e-006 xyz
    dof rx ry rz
  end
  begin
    id 25
    name LeftToes
    direction 0.00818058 -0.00485161 0.999955
    length 3.85048
    axis 1.06246e-005 4.65855e-005 -8.18502e-006 xyz
    dof rx ry rz
  end
:hierarchy
  begin
    root RightUpLegDummy SpineDummy LeftUpLegDummy
    RightUpLegDummy RightUpLeg
    RightUpLeg RightLeg
    RightLeg RightFoot
    RightFoot RightToes
    SpineDummy Spine
    Spine Spine1
    Spine1 HEadDummy LeftShoulder1Dummy RightShoulderDummy
    HEadDummy HEad
    LeftShoulder1Dummy LeftShoulder1
    LeftShoulder1 LeftArm
    LeftArm LeftForeArm
    LeftForeArm LeftHand
    RightShoulderDummy RightShoulder
    RightShoulder RightArm
    RightArm RightForeArm
    RightForeArm RightHand
    LeftUpLegDummy LeftUpLeg
    LeftUpLeg LeftLeg
    LeftLeg LeftFoot
    LeftFoot LeftToes
  end

# generated from PmQm by Jehee Lee
:FULLY-SPECIFIED
:DEGREES
23
root -16.259 38.1425 -16.2547 -178.778 23.0627 -174.96
RightUpLeg -14.5752 7.6695 11.6682
RightLeg 15.3272 -10.6488 -4.67717
RightFoot -1.77098 0.432506 -5.29531
RightToes -0.000541893 -0.000659172 -0.000493268
Spine 1.79471 -1.62108 5.41504
Spine1 3.26298 -2.886 6.44468
HEad 22.3237 -26.2032 -1.79507
LeftShoulder1 -3.88251e-019 -0 -3.92111e-022
LeftArm -33.7041 2.83929 -85.9521
LeftForeArm 35.2326 -1.32828 -2.46057
LeftHand -0.744155 -4.69423 8.84973
RightShoulder 7.45443e-017 -2.42657e-020 1.96277e-018
RightArm -26.5336 -13.322 70.4813
RightForeArm 32.7593 4.07745 6.48597
RightHand -1.00678 9.61666 -8.15284
LeftUpLeg -18.4825 7.48101 5.45765
LeftLeg 65.3891 0.043755 0.859242
LeftFoot 6.68153 0.694191 -4.54853
LeftToes 3.91355e-005 3.11907e-005 -4.10385e-006
24
root -16.004 38.2164 -17.3952 -178.797 26.2022 -174.865
RightUpLeg -12.6488 7.49685 11.86
RightLeg 16.0933 -7.7017 -3.73602
RightFoot -3.84217 0.334561 -5.49676
RightToes -0.000541893 -0.000659172 -0.000493268
Spine 1.87671 -1.03065 5.35123
Spine1 3.55007 -1.85306 6.18926
HEad 23.1129 -24.8788 -2.46208
LeftShoulder1 -3.88251e-019 -0 -3.92111e-022
LeftArm -33.9944 3.14419 -86.9518
LeftForeArm 36.1136 -0.350307 -1.75016
LeftHand -0.760484 -4.49466 9.20868
RightShoulder 7.45443e-017 -2.42657e-020 1.96277e-018
RightArm -25.9539 -11.911 70.7208
RightForeArm 34.5823 3.95023 6.53212
RightHand -0.972555 9.60721 -7.89502
LeftUpLeg -21.945 6.23441 5.5347
LeftLeg 62.4127 1.95533 4.70723
LeftFoot 1.59888 0.173779 -1.58472
LeftToes 3.91355e-005 3.11907e-005 -4.10385e-006
25
root -15.7413 38.4165 -18.5045 -179.334 29.6796 -175.618
RightUpLeg -10.0753 7.04563 11.1551
RightLeg 15.6685 -4.3448 -2.71552
RightFoot -5.32936 0.269591 -5.81079
RightToes -0.000541893 -0.000659172 -0.000493268
Spine 1.98392 -0.383024 4.63974
Spine1 3.91037 -0.740067 5.25314
HEad 23.9013 -23.3651 -2.70882
LeftShoulder1 -3.88251e-019 -0 -3.92111e-022
LeftArm -34.102 3.43348 -87.2382
LeftForeArm 35.0875 1.4674 -1.0946
LeftHand -0.680433 -4.54039 8.23644
RightShoulder 7.45443e-017 -2.42657e-020 1.96277e-018
RightArm -25.5094 -10.9626 71.2531
RightForeArm 33.6484 4.6231 7.1732
RightHand -1.05053 9.70984 -8.43984
LeftUpLeg -23.4405 5.03381 5.29725
LeftLeg 54.1941 5.15947 8.12387
LeftFoot -0.679722 0.038372 -0.367349
LeftToes 3.91355e-005 3.11907e-005 -4.10385e-006
26
root -15.4927 38.562 -19.5875 -179.37 32.8213 -176.058
RightUpLeg -8.12957 7.45292 10.4593
RightLeg 15.4308 -2.01178 -1.96318
RightFoot -7.06852 0.165821 -5.71924
RightToes -0.000541893 -0.000659172 -0.000493268
Spine 1.99724 0.12526 3.82633
Spine1 4.04433 0.107916 4.7182
HEad 24.2198 -21.8099 -3.04381
LeftShoulder1 -3.88251e-019 -0 -3.92111e-022
LeftArm -34.5246 3.68878 -86.9608
LeftForeArm 34.275 2.22904 -0.705712
LeftHand -0.663484 -4.81165 7.8383
RightShoulder 7.45443e-017 -2.42657e-020 1.96277e-018
RightArm -24.7908 -10.2872 71.6085
RightForeArm 31.7537 5.91506 8.49598
RightHand -1.16305 9.91938 -9.17896
LeftUpLeg -23.4762 3.74334 5.85702
LeftLeg 41.4998 8.52162 8.39221
LeftFoot -1.24353 0.0450549 -0.430076
LeftToes 3.91355e-005 3.11907e-005 -4.10385e-006
27
root -15.2355 38.644 -20.6591 -178.376 35.5472 -175.821
RightUpLeg -6.83305 8.0241 10.0276
RightLeg 14.8393 -0.0908814 -1.11148
RightFoot -8.29667 0.098963 -5.83585
RightToes -0.000541893 -0.000659172 -0.000493268
Spine 1.80174 0.46163 3.03916
Spine1 3.68116 0.727954 4.73462
HEad 24.1408 -20.2296 -3.72784
LeftShoulder1 -3.88251e-019 -0 -3.92111e-022
LeftArm -35.3185 4.32873 -86.5798
LeftForeArm 34.6511 2.02694 0.007130130005
LeftHand -0.75208 -4.76225 8.88756
RightShoulder 7.45443e-017 -2.42657e-020 1.96277e-018
RightArm -22.6103 -9.83892 71.8155
RightForeArm 30.2954 7.42987 9.78042
RightHand -1.18491 10.1635 -9.20629
LeftUpLeg -22.2693 3.27012 7.10152
LeftLeg 24.5813 10.0396 5.39466
LeftFoot 0.804551 0.155019 -1.48193
LeftToes 3.91355e-005 3.11907e-005 -4.10385e-006
28
root -14.9515 38.7252 -21.7341 -177.55 38.3515 -175.44
RightUpLeg -5.19194 8.38623 9.58175
RightLeg 14.0813 2.09564 -0.285903
RightFoot -9.49588 0.0286016 -5.75462
RightToes -0.000541893 -0.000659172 -0.000493268
Spine 1.76939 0.775675 2.12292
Spine1 3.56228 1.47081 4.73532
HEad 23.8182 -18.8231 -4.35088
LeftShoulder1 -3.88251e-019 -0 -3.92111e-022
LeftArm -35.9956 5.23657 -86.0097
LeftForeArm 34.9719 1.95047 0.761299
LeftHand -0.771159 -4.32028 9.49027
RightShoulder 7.45443e-017 -2.42657e-020 1.96277e-018
RightArm -19.3984 -9.47671 72.0473
RightForeArm 28.8449 8.60581 10.6039
RightHand -1.2119 10.524 -9.20577
LeftUpLeg -19.2882 4.86803 7.79258
LeftLeg 6.99838 7.11903 2.01157
LeftFoot 4.36168 0.608058 -4.53609
LeftToes 3.91355e-005 3.11907e-005 -4.10385e-006
29
root -14.6184 38.6211 -22.9938 -177.071 41.0483 -174.597
RightUpLeg -3.76363 9.34651 9.35205
RightLeg 15.7492 3.64546 0.688291
RightFoot -12.2449 -0.122791 -5.2082
RightToes -0.000541893 -0.000659172 -0.000493268
Spine 1.86967 1.07998 1.82318
Spine1 3.71766 2.13504 5.0348
HEad 23.7133 -17.7371 -4.84436
LeftShoulder1 -3.88251e-019 -0 -3.92111e-022
LeftArm -36.4351 6.01704 -85.1825
LeftForeArm 34.5102 1.92854 1.16327
LeftHand -0.711968 -4.02321 9.04363
RightShoulder 7.45443e-017 -2.42657e-020 1.96277e-018
RightArm -17.4376 -8.93227 72.145
RightForeArm 28.7343 8.72416 11.142
RightHand -1.33766 10.8601 -9.91546
LeftUpLeg -18.1797 5.98939 8.53401
LeftLeg 0.921629 2.94449 1.18376
LeftFoot 5.01532 1.17947 -8.42044
LeftToes 3.91355e-005 3.11907e-005 -4.10385e-006
30
root -14.2255 38.5982 -24.3081 -177.773 42.0865 -175.663
RightUpLeg -2.11648 10.0473 7.77397
RightLeg 16.9575 3.98428 1.07553
RightFoot -14.826 -0.256997 -5.15291
RightToes -0.000541893 -0.000659172 -0.000493268
Spine 1.88383 0.929414 1.267
Spine1 3.70485 1.82557 4.16263
HEad 24.3303 -17.0466 -5.40846
LeftShoulder1 -3.88251e-019 -0 -3.92111e-022
LeftArm -36.8725 6.73414 -84.4773
LeftForeArm 34.1263 1.90339 1.63919
LeftHand -0.713221 -4.06017 9.02707
RightShoulder 7.45443e-017 -2.42657e-020 1.96277e-018
RightArm -17.4485 -8.74796 71.9479
RightForeArm 30.6493 8.20023 11.3621
RightHand -1.38035 10.8619 -10.2175
LeftUpLeg -17.2885 5.13522 7.27192
LeftLeg 0.837102 1.33183 1.28124
LeftFoot 7.72724 1.33546 -8.2225
LeftToes 3.91355e-005 3.11907e-005 -4.10385e-006
31
root -13.8078 38.5132 -25.6422 179.907 41.7738 -178.77
RightUpLeg -0.971302 10.087 4.7349
RightLeg 19.8593 3.26183 1.10509
RightFoot -18.1037 -0.400107 -4.77283
RightToes -0.000541893 -0.000659172 -0.000493268
Spine 1.92358 0.588814 0.248358
Spine1 3.74977 1.08313 2.23784
HEad 25.1742 -17.0759 -5.67521
LeftShoulder1 -3.88251e-019 -0 -3.92111e-022
LeftArm -37.1194 7.27288 -83.9692
LeftForeArm 34.3208 1.86714 2.15737
LeftHand -0.751171 -4.11656 9.43861
RightShoulder 7.45443e-017 -2.42657e-020 1.96277e-018
RightArm -18.6182 -9.59883 71.697
RightForeArm 31.9235 8.10275 11.1191
RightHand -1.24216 10.5377 -9.4158
LeftUpLeg -16.7965 3.28473 4.21113
LeftLeg 4.40667 2.02289 1.05485
LeftFoot 9.78059 0.859696 -4.89475
LeftToes 3.91355e-005 3.11907e-005 -4.10385e-006
32
root -13.3817 38.341 -26.9097 175.906 42.0895 176.814
RightUpLeg -1.28118 8.51214 0.667772
RightLeg 26.9767 2.77986 1.34236
RightFoot -20.0326 -0.277255 -1.84689
RightToes -0.000541893 -0.000659172 -0.000493268
Spine 2.38306 0.735546 -1.31218
Spine1 4.6192 1.28401 -0.396144
HEad 25.3193 -17.7351 -5.14535
LeftShoulder1 -3.88251e-019 -0 -3.92111e-022
LeftArm -36.8206 7.25403 -83.1684
LeftForeArm 34.1741 1.87155 2.13303
LeftHand -0.737649 -4.08228 9.3049
RightShoulder 7.45443e-017 -2.42657e-020 1.96277e-018
RightArm -21.1699 -10.6289 72.0362
RightForeArm 31.5775 7.77098 10.4654
RightHand -1.15629 10.1856 -8.98328
LeftUpLeg -15.9437 1.55541 0.788967
LeftLeg 9.24387 4.21401 0.534862
LeftFoot 6.82239 0.493897 -3.36851
LeftToes 3.91355e-005 3.11907e-005 -4.10385e-006
